 <svg version="1.0" xmlns="http://www.w3.org/2000/svg" width="700.000000pt" height="592.000000pt" viewBox="0 0 700.000000 592.000000" preserveAspectRatio="xMidYMid meet">
<metadata>
Created by potrace 1.12, written by Peter Selinger 2001-2015
</metadata>
<g transform="translate(0.000000,592.000000) scale(0.100000,-0.100000)" fill="#000000" stroke="none">
<path d="M0 3005 l0 -2915 3433 2 c2893 3 3437 5 3450 17 16 12 17 228 17
2912 l0 2899 -3450 0 -3450 0 0 -2915z m2386 1070 l62 -35 144 0 c155 0 158
-1 197 -57 21 -31 27 -33 77 -33 47 0 59 -4 79 -26 14 -15 25 -30 25 -34 0 -4
18 -19 39 -33 22 -15 42 -35 46 -45 3 -11 23 -31 44 -45 32 -21 41 -35 51 -78
7 -28 20 -59 29 -68 52 -52 51 -47 51 -343 0 -306 6 -277 -64 -335 -22 -18
-26 -30 -26 -76 0 -61 -13 -79 -71 -95 -19 -5 -56 -25 -81 -44 -25 -20 -58
-38 -72 -42 -30 -7 -46 -40 -46 -93 0 -30 8 -43 44 -77 41 -38 45 -45 47 -94
2 -50 6 -56 45 -89 24 -19 48 -49 54 -68 6 -18 20 -41 31 -51 33 -30 42 -53
49 -133 7 -71 9 -76 49 -108 39 -33 41 -38 41 -88 0 -57 -2 -54 80 -112 2 -2
7 -33 11 -68 6 -62 13 -78 61 -138 23 -28 37 -131 24 -180 -10 -43 -40 -47
-314 -47 -293 0 -289 -1 -361 83 -37 43 -41 54 -41 100 0 49 -2 54 -42 88 -40
35 -42 40 -48 107 -6 57 -12 77 -35 104 -39 46 -55 89 -55 150 0 49 -3 55 -45
94 -43 39 -45 43 -45 97 0 48 -3 58 -22 68 -30 16 -151 137 -167 167 -11 21
-18 22 -120 22 -82 0 -111 -4 -120 -14 -9 -11 -13 -137 -14 -474 l-2 -459 -68
-67 -67 -66 -214 0 c-118 0 -226 4 -240 10 -14 5 -33 24 -42 42 -9 18 -27 46
-40 61 l-24 29 0 1175 0 1175 31 71 c16 40 34 82 39 93 5 13 44 39 102 68 l93
46 389 0 389 0 63 -35z m2313 19 c31 -8 83 -24 116 -35 48 -15 89 -19 200 -19
154 0 172 -5 200 -61 14 -27 20 -29 70 -29 l55 0 115 -115 115 -115 0 -54 c0
-51 2 -55 35 -75 19 -11 40 -32 45 -46 14 -36 13 -428 0 -457 -6 -13 -27 -33
-45 -46 -32 -20 -35 -26 -35 -73 l0 -51 -137 -136 -137 -135 0 -54 c-1 -52 1
-57 38 -88 32 -27 40 -41 47 -86 6 -36 15 -59 29 -69 64 -46 63 -45 68 -109 4
-59 6 -64 42 -87 42 -28 50 -46 50 -115 0 -37 5 -50 29 -73 35 -34 46 -60 60
-145 8 -49 18 -72 40 -95 37 -39 51 -75 51 -132 0 -24 5 -63 11 -86 13 -55
-13 -136 -51 -156 -19 -9 -92 -12 -293 -10 l-269 3 -20 24 c-14 19 -19 37 -17
73 3 47 1 51 -41 87 l-44 38 -4 94 -4 94 -44 41 c-42 39 -44 43 -44 97 0 51
-4 61 -35 95 -23 26 -38 56 -45 89 -8 37 -21 59 -45 81 -34 32 -39 41 -49 103
-7 41 -26 61 -73 77 -18 6 -51 26 -74 44 -40 32 -44 33 -149 36 -166 6 -150
61 -150 -533 l0 -496 -25 -25 -25 -25 -228 3 -228 3 -62 63 -62 63 0 1220 0
1220 26 24 c15 14 30 25 35 25 4 0 17 15 28 34 12 18 36 39 54 46 17 7 43 23
57 35 14 13 32 25 40 28 8 3 174 6 369 6 292 1 364 -2 410 -15z"></path>
<path d="M1994 3569 c-15 -17 -16 -49 -15 -306 2 -350 -3 -336 114 -341 54 -2
86 2 114 14 24 11 80 19 157 24 102 6 120 9 129 26 10 17 37 45 88 88 17 14
19 31 19 156 0 125 -2 142 -19 156 -18 15 -55 52 -91 89 -8 8 -38 35 -66 59
-47 39 -58 44 -122 50 -38 4 -119 6 -180 5 -94 -1 -114 -4 -128 -20z"></path>
<path d="M4350 3583 c-38 -14 -40 -30 -40 -317 0 -262 1 -283 20 -313 11 -18
28 -33 37 -34 66 -4 169 5 232 22 41 10 101 19 133 19 32 0 73 6 91 13 36 15
107 89 107 111 0 8 21 32 46 54 44 38 46 41 46 96 1 53 -2 60 -36 95 -25 26
-38 50 -45 84 -11 59 -23 74 -75 88 -22 6 -58 24 -78 40 -20 16 -49 34 -63 39
-27 10 -348 13 -375 3z"></path>
</g>
</svg>